<svg xmlns="http://www.w3.org/2000/svg" xmlns:xlink="http://www.w3.org/1999/xlink" width="48" height="48" id="post"><defs><linearGradient id="b" x1="949.87" x2="974.39" y1="518.014" y2="544.657" gradientTransform="translate(-1571.72 443.344) scale(1.53785)" gradientUnits="userSpaceOnUse" xlink:href="#a"></linearGradient><linearGradient id="a"><stop offset="0" stop-color="#24f7bc"></stop><stop offset="1" stop-color="#24c4fc"></stop></linearGradient></defs><g transform="translate(117.368 -1236.363)"><rect width="48" height="48" x="-117.368" y="1236.363" fill="url(#b)" rx="10.144" ry="10.144"></rect><path fill="#fff" fill-rule="evenodd" d="M-95.282 1250.108a4.41 4.41 0 0 0-3.123 1.29 4.45 4.45 0 0 0-.42.508h-2.77c-.686 0-1.251.57-1.251 1.256v2.946c0 .686.565 1.255 1.252 1.255h1.898v1h-.642a.5.5 0 0 0-.5.5v1.098a1.41 1.41 0 0 0 1.402 1.402h5.568v8h1v-8h2v8h1v-8h1v6h1v-6h6.596c.769 0 1.404-.633 1.404-1.402v-5.439a4.415 4.415 0 0 0-4.414-4.414h-10.84v.016c-.054 0-.105-.016-.16-.016zm0 1c1.9 0 3.414 1.514 3.414 3.414v3.841h-6.828v-1h2.574c.687 0 1.254-.57 1.254-1.255v-2.946c0-.686-.567-1.256-1.254-1.256h-1.334a3.376 3.376 0 0 1 2.174-.798zm2.766 0h8.234c1.9 0 3.414 1.514 3.414 3.414v3.841h-10v-3.841c0-1.384-.65-2.605-1.648-3.414zm-8.631 1.798h4.223l-2.112 1.266-2.111-1.266zm5.28.534v2.668a.244.244 0 0 1-.255.255h-5.472c-.148 0-.252-.104-.252-.255v-2.455l2.554 1.533a.5.5 0 0 0 .514 0l2.91-1.746zm-12 .923v1h2v-1h-2zm3 0v1h1v-1h-1zm-4 2v1h1v-1h-1zm2 0v1h3v-1h-3zm7.029 3h7.97v.598a.392.392 0 0 1-.404.402h-7.164a.39.39 0 0 1-.402-.402v-.598zm8.97 0h10v.598a.392.392 0 0 1-.404.402h-9.662c.04-.128.066-.262.066-.402v-.598z" color="#000" font-family="sans-serif" font-weight="400" overflow="visible" style="line-height:normal;text-indent:0;text-align:start;text-decoration-line:none;text-decoration-style:solid;text-decoration-color:#000;text-transform:none;block-progression:tb;isolation:auto;mix-blend-mode:normal"></path></g></svg>